<?xml version="1.0" encoding="UTF-8"?>
<svg id="Layer_2" data-name="Layer 2" xmlns="http://www.w3.org/2000/svg" viewBox="0 0 698.89 625.87">
  <defs>
    <style>
      .cls-1 {
        fill: #73813e;
      }
    </style>
  </defs>
  <g id="Layer_1-2" data-name="Layer 1">
    <path class="cls-1" d="M698.89,220.72v-90.25h-264.86V0h-126.55v126.17c-23.08-5.54-49.69-8.45-80.19-8.45-38.47,0-71.09,4.09-97.86,12.26-26.78,8.18-48.5,19.79-65.18,34.83-16.67,15.05-28.79,33.03-36.3,53.95-7.53,20.94-11.62,43.82-12.26,68.67h118.7c3.27-21.58,11.28-38.91,24.04-52,12.75-13.07,33.84-19.62,63.27-19.62,24.85,0,44.63,4.42,59.35,13.25,14.72,8.83,22.07,21.09,22.07,36.79,0,17.01-5.57,29.27-16.68,36.78-11.13,7.53-32.71,13.59-64.74,18.15-32.05,4.58-61.65,9.66-88.78,15.21-27.14,5.56-50.52,14.22-70.14,25.99-19.62,11.77-34.99,27.96-46.1,48.56C5.55,431.14,0,458.78,0,493.43c0,39.24,12.91,71.12,38.75,95.65,25.83,24.53,66.54,36.79,122.14,36.79,32.69,0,61.46-5.08,86.33-15.21,24.85-10.13,44.79-23.7,59.84-40.71,1.28,16.35,3.89,30.75,7.78,43.16h107.68c23.13,8.34,50.19,12.75,81.65,12.75,33.92,0,63.12-5.24,87.58-15.69,24.46-10.46,44.68-24.68,60.67-42.68,15.97-17.97,27.72-38.58,35.23-61.8,7.49-23.21,11.25-47.58,11.25-73.09v-137.34h-117.72v125.57c0,30.08-6.01,53.31-18.02,69.65-12.02,16.35-30.7,24.52-56.04,24.52s-44.67-8.34-56.04-25.01c-11.38-16.67-17.04-40.37-17.04-71.12v-198.16h264.86ZM305.09,429.67c0,14.39-3.11,27.96-9.32,40.71-6.23,12.75-14.4,23.88-24.52,33.36-10.15,9.49-22.25,17.01-36.3,22.56-14.07,5.56-29.28,8.34-45.62,8.34-41.2,0-61.8-17.98-61.8-53.96,0-20.92,6.86-36.94,20.6-48.07,13.73-11.11,38.9-20.26,75.54-27.47,23.54-4.56,41.52-8.83,53.95-12.75,12.41-3.92,21.9-9.15,28.45-15.69l-.98,52.98Z"/>
  </g>
</svg>